<svg width="20" height="19" viewBox="0 0 20 19" fill="none" xmlns="http://www.w3.org/2000/svg">
<path d="M2.66927 18.0514C2.1651 18.0514 1.73366 17.8721 1.37494 17.5133C1.0156 17.154 0.835938 16.7223 0.835938 16.2181V6.13477C0.835938 5.6306 1.0156 5.19915 1.37494 4.84043C1.73366 4.4811 2.1651 4.30143 2.66927 4.30143H6.33594V2.4681C6.33594 1.96393 6.5156 1.53218 6.87494 1.17285C7.23366 0.814127 7.6651 0.634766 8.16927 0.634766H11.8359C12.3401 0.634766 12.7719 0.814127 13.1312 1.17285C13.4899 1.53218 13.6693 1.96393 13.6693 2.4681V4.30143H17.3359C17.8401 4.30143 18.2719 4.4811 18.6312 4.84043C18.9899 5.19915 19.1693 5.6306 19.1693 6.13477V16.2181C19.1693 16.7223 18.9899 17.154 18.6312 17.5133C18.2719 17.8721 17.8401 18.0514 17.3359 18.0514H2.66927ZM2.66927 16.2181H17.3359V6.13477H2.66927V16.2181ZM8.16927 4.30143H11.8359V2.4681H8.16927V4.30143ZM2.66927 16.2181V6.13477V16.2181Z" fill="white"/>
</svg>
