<svg width="20" height="16" viewBox="0 0 20 16" fill="none" xmlns="http://www.w3.org/2000/svg">
<path d="M0.375 3.33398C0.375 2.51347 0.700948 1.72656 1.28114 1.14637C1.86133 0.566182 2.64824 0.240234 3.46875 0.240234H16.5312C17.3518 0.240234 18.1387 0.566182 18.7189 1.14637C19.2991 1.72656 19.625 2.51347 19.625 3.33398V12.2715C19.625 13.092 19.2991 13.8789 18.7189 14.4591C18.1387 15.0393 17.3518 15.3652 16.5312 15.3652H3.46875C2.64824 15.3652 1.86133 15.0393 1.28114 14.4591C0.700948 13.8789 0.375 13.092 0.375 12.2715V3.33398ZM3.46875 1.61523C3.01291 1.61523 2.57574 1.79632 2.25341 2.11864C1.93108 2.44097 1.75 2.87814 1.75 3.33398V4.36523H18.25V3.33398C18.25 2.87814 18.0689 2.44097 17.7466 2.11864C17.4243 1.79632 16.9871 1.61523 16.5312 1.61523H3.46875ZM1.75 12.2715C1.75 12.7273 1.93108 13.1645 2.25341 13.4868C2.57574 13.8092 3.01291 13.9902 3.46875 13.9902H16.5312C16.9871 13.9902 17.4243 13.8092 17.7466 13.4868C18.0689 13.1645 18.25 12.7273 18.25 12.2715V5.74023H1.75V12.2715ZM13.4375 9.86523H15.5C15.6823 9.86523 15.8572 9.93767 15.9861 10.0666C16.1151 10.1955 16.1875 10.3704 16.1875 10.5527C16.1875 10.7351 16.1151 10.9099 15.9861 11.0389C15.8572 11.1678 15.6823 11.2402 15.5 11.2402H13.4375C13.2552 11.2402 13.0803 11.1678 12.9514 11.0389C12.8224 10.9099 12.75 10.7351 12.75 10.5527C12.75 10.3704 12.8224 10.1955 12.9514 10.0666C13.0803 9.93767 13.2552 9.86523 13.4375 9.86523Z" fill="white"/>
</svg>
