<svg width="17" height="18" viewBox="0 0 17 18" fill="none" xmlns="http://www.w3.org/2000/svg">
<path d="M12.5339 2.22387C12.3071 2.22387 12.0896 2.13378 11.9292 1.97342C11.7689 1.81306 11.6788 1.59556 11.6788 1.36877C11.6788 1.14198 11.7689 0.924487 11.9292 0.764125C12.0896 0.603762 12.3071 0.513672 12.5339 0.513672H15.9543C16.1811 0.513672 16.3986 0.603762 16.5589 0.764125C16.7193 0.924487 16.8094 1.14198 16.8094 1.36877V4.78917C16.8094 5.01596 16.7193 5.23345 16.5589 5.39382C16.3986 5.55418 16.1811 5.64427 15.9543 5.64427C15.7275 5.64427 15.51 5.55418 15.3496 5.39382C15.1893 5.23345 15.0992 5.01596 15.0992 4.78917V3.43298L10.1456 8.38657C9.98524 8.54688 9.76779 8.63694 9.54105 8.63694C9.3143 8.63694 9.09684 8.54688 8.93649 8.38657L6.5482 5.99828L2.02215 10.5243C1.86088 10.6801 1.64488 10.7663 1.42068 10.7643C1.19647 10.7624 0.982003 10.6724 0.823461 10.5139C0.664918 10.3554 0.574988 10.1409 0.57304 9.91669C0.571092 9.69248 0.657281 9.47649 0.813044 9.31521L5.94364 4.18461C6.104 4.02431 6.32145 3.93425 6.5482 3.93425C6.77494 3.93425 6.9924 4.02431 7.15275 4.18461L9.54105 6.57291L13.8901 2.22387H12.5339ZM2.2727 14.1953V16.7606C2.2727 16.9874 2.18261 17.2048 2.02225 17.3652C1.86188 17.5256 1.64439 17.6157 1.4176 17.6157C1.19081 17.6157 0.973315 17.5256 0.812953 17.3652C0.652591 17.2048 0.5625 16.9874 0.5625 16.7606V14.1953C0.5625 13.9685 0.652591 13.751 0.812953 13.5906C0.973315 13.4303 1.19081 13.3402 1.4176 13.3402C1.64439 13.3402 1.86188 13.4303 2.02225 13.5906C2.18261 13.751 2.2727 13.9685 2.2727 14.1953ZM6.5482 10.7749C6.5482 10.5481 6.45811 10.3306 6.29774 10.1702C6.13738 10.0099 5.91988 9.91977 5.6931 9.91977C5.46631 9.91977 5.24881 10.0099 5.08845 10.1702C4.92809 10.3306 4.838 10.5481 4.838 10.7749V16.7606C4.838 16.9874 4.92809 17.2048 5.08845 17.3652C5.24881 17.5256 5.46631 17.6157 5.6931 17.6157C5.91988 17.6157 6.13738 17.5256 6.29774 17.3652C6.45811 17.2048 6.5482 16.9874 6.5482 16.7606V10.7749ZM9.96859 11.63C10.1954 11.63 10.4129 11.7201 10.5732 11.8804C10.7336 12.0408 10.8237 12.2583 10.8237 12.4851V16.7606C10.8237 16.9874 10.7336 17.2048 10.5732 17.3652C10.4129 17.5256 10.1954 17.6157 9.96859 17.6157C9.74181 17.6157 9.52431 17.5256 9.36395 17.3652C9.20359 17.2048 9.11349 16.9874 9.11349 16.7606V12.4851C9.11349 12.2583 9.20359 12.0408 9.36395 11.8804C9.52431 11.7201 9.74181 11.63 9.96859 11.63ZM15.0992 8.20957C15.0992 7.98278 15.0091 7.76528 14.8487 7.60492C14.6884 7.44456 14.4709 7.35447 14.2441 7.35447C14.0173 7.35447 13.7998 7.44456 13.6394 7.60492C13.4791 7.76528 13.389 7.98278 13.389 8.20957V16.7606C13.389 16.9874 13.4791 17.2048 13.6394 17.3652C13.7998 17.5256 14.0173 17.6157 14.2441 17.6157C14.4709 17.6157 14.6884 17.5256 14.8487 17.3652C15.0091 17.2048 15.0992 16.9874 15.0992 16.7606V8.20957Z" fill="white"/>
</svg>
