<svg width="20" height="19" viewBox="0 0 20 19" fill="none" xmlns="http://www.w3.org/2000/svg">
<path d="M10.1738 0.307617C5.03441 0.307617 0.863281 4.47875 0.863281 9.61818C0.863281 14.7576 5.03441 18.9287 10.1738 18.9287C15.3133 18.9287 19.4844 14.7576 19.4844 9.61818C19.4844 4.47875 15.3133 0.307617 10.1738 0.307617ZM10.1738 17.0666C6.06789 17.0666 2.72539 13.7241 2.72539 9.61818C2.72539 5.51222 6.06789 2.16973 10.1738 2.16973C14.2798 2.16973 17.6223 5.51222 17.6223 9.61818C17.6223 13.7241 14.2798 17.0666 10.1738 17.0666ZM5.05304 14.739L12.0453 11.4896L15.2947 4.49737L8.30242 7.74676L5.05304 14.739ZM10.1738 8.59402C10.7418 8.59402 11.198 9.05024 11.198 9.61818C11.198 10.1861 10.7418 10.6423 10.1738 10.6423C9.6059 10.6423 9.14968 10.1861 9.14968 9.61818C9.14968 9.05024 9.6059 8.59402 10.1738 8.59402Z" fill="white"/>
</svg>
